<svg xmlns="http://www.w3.org/2000/svg" width="300" height="165" fill="none" aria-labelledby="descId" role="img" viewBox="0 0 300 165"><title id="titleId"/><desc id="descId"/><style>.header{font:600 18px &apos;Segoe UI&apos;,Ubuntu,Sans-Serif;fill:#c792ea;animation:fadeInAnimation .8s ease-in-out forwards}@supports (-moz-appearance:auto){.header{font-size:15.5px}}.lang-name{font:400 11px &quot;Segoe UI&quot;,Ubuntu,Sans-Serif;fill:#7fdbca}.stagger{opacity:0;animation:fadeInAnimation .3s ease-in-out forwards}#rect-mask rect{animation:slideInAnimation 1s ease-in-out forwards}</style><rect width="299" height="99%" x=".5" y=".5" fill="#011627" stroke="#e4e2e2" stroke-opacity="1" data-testid="card-bg" rx="4.5"/><g data-testid="card-title"><g><text x="0" y="0" class="header" data-testid="header" transform="translate(25, 35) translate(0, 0)">Most Used Languages</text></g></g><g data-testid="main-card-body" transform="translate(0, 55)"><svg x="25" data-testid="lang-items"><mask id="rect-mask"><rect width="250" height="8" x="0" y="0" fill="#fff" rx="5"/></mask><rect width="86.35" height="8" x="0" y="0" fill="#4F5D95" data-testid="lang-progress" mask="url(#rect-mask)"/><rect width="64.98" height="8" x="86.35" y="0" fill="#f7523f" data-testid="lang-progress" mask="url(#rect-mask)"/><rect width="33.68" height="8" x="151.33" y="0" fill="#f1e05a" data-testid="lang-progress" mask="url(#rect-mask)"/><rect width="32.25" height="8" x="185.01" y="0" fill="#e34c26" data-testid="lang-progress" mask="url(#rect-mask)"/><rect width="19.23" height="8" x="217.26" y="0" fill="#639" data-testid="lang-progress" mask="url(#rect-mask)"/><rect width="13.52" height="8" x="236.49" y="0" fill="#555" data-testid="lang-progress" mask="url(#rect-mask)"/><g><g><g><g class="stagger" transform="translate(0, 25) translate(0, 0) translate(0, 0)" style="animation-delay:450ms"><circle cx="5" cy="6" r="5" fill="#4F5D95"/><text x="15" y="10" class="lang-name" data-testid="lang-name">PHP 34.54%</text></g></g><g><g class="stagger" transform="translate(0, 25) translate(0, 0) translate(0, 25)" style="animation-delay:600ms"><circle cx="5" cy="6" r="5" fill="#f7523f"/><text x="15" y="10" class="lang-name" data-testid="lang-name">Blade 25.99%</text></g></g><g><g class="stagger" transform="translate(0, 25) translate(0, 0) translate(0, 50)" style="animation-delay:750ms"><circle cx="5" cy="6" r="5" fill="#f1e05a"/><text x="15" y="10" class="lang-name" data-testid="lang-name">JavaScript 13.47%</text></g></g></g><g><g><g class="stagger" transform="translate(0, 25) translate(150, 0) translate(0, 0)" style="animation-delay:450ms"><circle cx="5" cy="6" r="5" fill="#e34c26"/><text x="15" y="10" class="lang-name" data-testid="lang-name">HTML 12.90%</text></g></g><g><g class="stagger" transform="translate(0, 25) translate(150, 0) translate(0, 25)" style="animation-delay:600ms"><circle cx="5" cy="6" r="5" fill="#639"/><text x="15" y="10" class="lang-name" data-testid="lang-name">CSS 7.69%</text></g></g><g><g class="stagger" transform="translate(0, 25) translate(150, 0) translate(0, 50)" style="animation-delay:750ms"><circle cx="5" cy="6" r="5" fill="#555"/><text x="15" y="10" class="lang-name" data-testid="lang-name">C 5.41%</text></g></g></g></g></svg></g></svg>